<svg xmlns="http://www.w3.org/2000/svg" viewBox="0 0 1464 24" width="1464" height="24"><g><defs><clipPath id="clip_frame0_myfill"><path d="M12.5 1.5c-4 2-5 4-5 4l-1 4h6v-8z"/></clipPath></defs><path d="M12.5 2c3 0 5.5 4.6 5.5 10s-2.5 10-5.5 10S7 17.4 7 12 9.5 2 12.5 2m0-1C8.9 1 6 5.9 6 12s2.9 11 6.5 11S19 18.1 19 12 16.1 1 12.5 1z" fill="#000000"/><path d="M12.5 1.5v8m-6 0h12" fill="none" stroke="#000000" stroke-miterlimit="10"/><path clip-path="url(#clip_frame0_myfill)" d="M.5 1.5h6v8h-6z" fill="#000000" stroke="#000000" stroke-miterlimit="10"/></g><g transform="translate(24)"><defs><clipPath id="clip_frame1_myfill"><path d="M12.5 1.5c-4 2-5 4-5 4l-1 4h6v-8z"/></clipPath></defs><path d="M12.5 2c3 0 5.5 4.6 5.5 10s-2.5 10-5.5 10S7 17.4 7 12 9.5 2 12.5 2m0-1C8.9 1 6 5.9 6 12s2.9 11 6.5 11S19 18.1 19 12 16.1 1 12.5 1z" fill="#000000"/><path d="M12.5 1.5v8m-6 0h12" fill="none" stroke="#000000" stroke-miterlimit="10"/><path clip-path="url(#clip_frame1_myfill)" d="M.5 1.5h6.021v8H.5z" fill="#000000" stroke="#000000" stroke-miterlimit="10"/></g><g transform="translate(48)"><defs><clipPath id="clip_frame2_myfill"><path d="M12.5 1.5c-4 2-5 4-5 4l-1 4h6v-8z"/></clipPath></defs><path d="M12.5 2c3 0 5.5 4.6 5.5 10s-2.5 10-5.5 10S7 17.4 7 12 9.5 2 12.5 2m0-1C8.9 1 6 5.9 6 12s2.9 11 6.5 11S19 18.1 19 12 16.1 1 12.5 1z" fill="#000000"/><path d="M12.5 1.5v8m-6 0h12" fill="none" stroke="#000000" stroke-miterlimit="10"/><path clip-path="url(#clip_frame2_myfill)" d="M.5 1.5h6.078v8H.5z" fill="#000000" stroke="#000000" stroke-miterlimit="10"/></g><g transform="translate(72)"><defs><clipPath id="clip_frame3_myfill"><path d="M12.5 1.5c-4 2-5 4-5 4l-1 4h6v-8z"/></clipPath></defs><path d="M12.5 2c3 0 5.5 4.6 5.5 10s-2.5 10-5.5 10S7 17.4 7 12 9.5 2 12.5 2m0-1C8.9 1 6 5.9 6 12s2.9 11 6.5 11S19 18.1 19 12 16.1 1 12.5 1z" fill="#000000"/><path d="M12.5 1.5v8m-6 0h12" fill="none" stroke="#000000" stroke-miterlimit="10"/><path clip-path="url(#clip_frame3_myfill)" d="M.5 1.5h6.168v8H.5z" fill="#000000" stroke="#000000" stroke-miterlimit="10"/></g><g transform="translate(96)"><defs><clipPath id="clip_frame4_myfill"><path d="M12.5 1.5c-4 2-5 4-5 4l-1 4h6v-8z"/></clipPath></defs><path d="M12.5 2c3 0 5.5 4.6 5.5 10s-2.5 10-5.5 10S7 17.4 7 12 9.5 2 12.5 2m0-1C8.9 1 6 5.9 6 12s2.9 11 6.5 11S19 18.1 19 12 16.1 1 12.5 1z" fill="#000000"/><path d="M12.5 1.5v8m-6 0h12" fill="none" stroke="#000000" stroke-miterlimit="10"/><path clip-path="url(#clip_frame4_myfill)" d="M.5 1.5h6.285v8H.5z" fill="#000000" stroke="#000000" stroke-miterlimit="10"/></g><g transform="translate(120)"><defs><clipPath id="clip_frame5_myfill"><path d="M12.5 1.5c-4 2-5 4-5 4l-1 4h6v-8z"/></clipPath></defs><path d="M12.5 2c3 0 5.5 4.6 5.5 10s-2.5 10-5.5 10S7 17.4 7 12 9.5 2 12.5 2m0-1C8.9 1 6 5.9 6 12s2.9 11 6.5 11S19 18.1 19 12 16.1 1 12.5 1z" fill="#000000"/><path d="M12.5 1.5v8m-6 0h12" fill="none" stroke="#000000" stroke-miterlimit="10"/><path clip-path="url(#clip_frame5_myfill)" d="M.5 1.5h6.427v8H.5z" fill="#000000" stroke="#000000" stroke-miterlimit="10"/></g><g transform="translate(144)"><defs><clipPath id="clip_frame6_myfill"><path d="M12.5 1.5c-4 2-5 4-5 4l-1 4h6v-8z"/></clipPath></defs><path d="M12.5 2c3 0 5.5 4.6 5.5 10s-2.5 10-5.5 10S7 17.4 7 12 9.5 2 12.5 2m0-1C8.9 1 6 5.9 6 12s2.9 11 6.5 11S19 18.1 19 12 16.1 1 12.5 1z" fill="#000000"/><path d="M12.5 1.5v8m-6 0h12" fill="none" stroke="#000000" stroke-miterlimit="10"/><path clip-path="url(#clip_frame6_myfill)" d="M.5 1.5h6.592v8H.5z" fill="#000000" stroke="#000000" stroke-miterlimit="10"/></g><g transform="translate(168)"><defs><clipPath id="clip_frame7_myfill"><path d="M12.5 1.5c-4 2-5 4-5 4l-1 4h6v-8z"/></clipPath></defs><path d="M12.5 2c3 0 5.5 4.6 5.5 10s-2.5 10-5.5 10S7 17.4 7 12 9.5 2 12.5 2m0-1C8.9 1 6 5.9 6 12s2.9 11 6.5 11S19 18.1 19 12 16.1 1 12.5 1z" fill="#000000"/><path d="M12.5 1.5v8m-6 0h12" fill="none" stroke="#000000" stroke-miterlimit="10"/><path clip-path="url(#clip_frame7_myfill)" d="M.5 1.5h6.776v8H.5z" fill="#000000" stroke="#000000" stroke-miterlimit="10"/></g><g transform="translate(192)"><defs><clipPath id="clip_frame8_myfill"><path d="M12.5 1.5c-4 2-5 4-5 4l-1 4h6v-8z"/></clipPath></defs><path d="M12.5 2c3 0 5.5 4.6 5.5 10s-2.5 10-5.5 10S7 17.4 7 12 9.5 2 12.5 2m0-1C8.9 1 6 5.9 6 12s2.9 11 6.5 11S19 18.1 19 12 16.1 1 12.5 1z" fill="#000000"/><path d="M12.5 1.5v8m-6 0h12" fill="none" stroke="#000000" stroke-miterlimit="10"/><path clip-path="url(#clip_frame8_myfill)" d="M.5 1.5h6.98v8H.5z" fill="#000000" stroke="#000000" stroke-miterlimit="10"/></g><g transform="translate(216)"><defs><clipPath id="clip_frame9_myfill"><path d="M12.5 1.5c-4 2-5 4-5 4l-1 4h6v-8z"/></clipPath></defs><path d="M12.5 2c3 0 5.5 4.6 5.5 10s-2.5 10-5.5 10S7 17.4 7 12 9.5 2 12.5 2m0-1C8.9 1 6 5.9 6 12s2.9 11 6.5 11S19 18.1 19 12 16.1 1 12.5 1z" fill="#000000"/><path d="M12.5 1.5v8m-6 0h12" fill="none" stroke="#000000" stroke-miterlimit="10"/><path clip-path="url(#clip_frame9_myfill)" d="M.5 1.5h7.199v8H.5z" fill="#000000" stroke="#000000" stroke-miterlimit="10"/></g><g transform="translate(240)"><defs><clipPath id="clip_frame10_myfill"><path d="M12.5 1.5c-4 2-5 4-5 4l-1 4h6v-8z"/></clipPath></defs><path d="M12.5 2c3 0 5.5 4.6 5.5 10s-2.5 10-5.5 10S7 17.4 7 12 9.5 2 12.5 2m0-1C8.9 1 6 5.9 6 12s2.9 11 6.5 11S19 18.1 19 12 16.1 1 12.5 1z" fill="#000000"/><path d="M12.5 1.5v8m-6 0h12" fill="none" stroke="#000000" stroke-miterlimit="10"/><path clip-path="url(#clip_frame10_myfill)" d="M.5 1.5h7.435v8H.5z" fill="#000000" stroke="#000000" stroke-miterlimit="10"/></g><g transform="translate(264)"><defs><clipPath id="clip_frame11_myfill"><path d="M12.5 1.5c-4 2-5 4-5 4l-1 4h6v-8z"/></clipPath></defs><path d="M12.5 2c3 0 5.5 4.6 5.5 10s-2.5 10-5.5 10S7 17.4 7 12 9.5 2 12.5 2m0-1C8.9 1 6 5.9 6 12s2.9 11 6.5 11S19 18.1 19 12 16.1 1 12.5 1z" fill="#000000"/><path d="M12.5 1.5v8m-6 0h12" fill="none" stroke="#000000" stroke-miterlimit="10"/><path clip-path="url(#clip_frame11_myfill)" d="M.5 1.5h7.685v8H.5z" fill="#000000" stroke="#000000" stroke-miterlimit="10"/></g><g transform="translate(288)"><defs><clipPath id="clip_frame12_myfill"><path d="M12.5 1.5c-4 2-5 4-5 4l-1 4h6v-8z"/></clipPath></defs><path d="M12.5 2c3 0 5.5 4.6 5.5 10s-2.5 10-5.5 10S7 17.4 7 12 9.5 2 12.5 2m0-1C8.9 1 6 5.9 6 12s2.9 11 6.5 11S19 18.1 19 12 16.1 1 12.5 1z" fill="#000000"/><path d="M12.5 1.5v8m-6 0h12" fill="none" stroke="#000000" stroke-miterlimit="10"/><path clip-path="url(#clip_frame12_myfill)" d="M.5 1.5h7.949v8H.5z" fill="#000000" stroke="#000000" stroke-miterlimit="10"/></g><g transform="translate(312)"><defs><clipPath id="clip_frame13_myfill"><path d="M12.5 1.5c-4 2-5 4-5 4l-1 4h6v-8z"/></clipPath></defs><path d="M12.5 2c3 0 5.5 4.6 5.5 10s-2.5 10-5.5 10S7 17.4 7 12 9.5 2 12.5 2m0-1C8.9 1 6 5.9 6 12s2.9 11 6.5 11S19 18.1 19 12 16.1 1 12.5 1z" fill="#000000"/><path d="M12.5 1.5v8m-6 0h12" fill="none" stroke="#000000" stroke-miterlimit="10"/><path clip-path="url(#clip_frame13_myfill)" d="M.5 1.5h8.225v8H.5z" fill="#000000" stroke="#000000" stroke-miterlimit="10"/></g><g transform="translate(336)"><defs><clipPath id="clip_frame14_myfill"><path d="M12.5 1.5c-4 2-5 4-5 4l-1 4h6v-8z"/></clipPath></defs><path d="M12.5 2c3 0 5.5 4.6 5.5 10s-2.5 10-5.5 10S7 17.4 7 12 9.5 2 12.5 2m0-1C8.9 1 6 5.9 6 12s2.9 11 6.5 11S19 18.1 19 12 16.1 1 12.5 1z" fill="#000000"/><path d="M12.5 1.5v8m-6 0h12" fill="none" stroke="#000000" stroke-miterlimit="10"/><path clip-path="url(#clip_frame14_myfill)" d="M.5 1.5h8.514v8H.5z" fill="#000000" stroke="#000000" stroke-miterlimit="10"/></g><g transform="translate(360)"><defs><clipPath id="clip_frame15_myfill"><path d="M12.5 1.5c-4 2-5 4-5 4l-1 4h6v-8z"/></clipPath></defs><path d="M12.5 2c3 0 5.5 4.6 5.5 10s-2.5 10-5.5 10S7 17.4 7 12 9.5 2 12.5 2m0-1C8.9 1 6 5.9 6 12s2.9 11 6.5 11S19 18.1 19 12 16.1 1 12.5 1z" fill="#000000"/><path d="M12.5 1.5v8m-6 0h12" fill="none" stroke="#000000" stroke-miterlimit="10"/><path clip-path="url(#clip_frame15_myfill)" d="M.5 1.5h8.814v8H.5z" fill="#000000" stroke="#000000" stroke-miterlimit="10"/></g><g transform="translate(384)"><defs><clipPath id="clip_frame16_myfill"><path d="M12.5 1.5c-4 2-5 4-5 4l-1 4h6v-8z"/></clipPath></defs><path d="M12.5 2c3 0 5.5 4.6 5.5 10s-2.5 10-5.5 10S7 17.4 7 12 9.5 2 12.5 2m0-1C8.9 1 6 5.9 6 12s2.9 11 6.5 11S19 18.1 19 12 16.1 1 12.5 1z" fill="#000000"/><path d="M12.5 1.5v8m-6 0h12" fill="none" stroke="#000000" stroke-miterlimit="10"/><path clip-path="url(#clip_frame16_myfill)" d="M.5 1.5h9.126v8H.5z" fill="#000000" stroke="#000000" stroke-miterlimit="10"/></g><g transform="translate(408)"><defs><clipPath id="clip_frame17_myfill"><path d="M12.5 1.5c-4 2-5 4-5 4l-1 4h6v-8z"/></clipPath></defs><path d="M12.5 2c3 0 5.5 4.6 5.5 10s-2.5 10-5.5 10S7 17.4 7 12 9.5 2 12.5 2m0-1C8.9 1 6 5.9 6 12s2.9 11 6.5 11S19 18.1 19 12 16.1 1 12.5 1z" fill="#000000"/><path d="M12.5 1.5v8m-6 0h12" fill="none" stroke="#000000" stroke-miterlimit="10"/><path clip-path="url(#clip_frame17_myfill)" d="M.5 1.5h9.448v8H.5z" fill="#000000" stroke="#000000" stroke-miterlimit="10"/></g><g transform="translate(432)"><defs><clipPath id="clip_frame18_myfill"><path d="M12.5 1.5c-4 2-5 4-5 4l-1 4h6v-8z"/></clipPath></defs><path d="M12.5 2c3 0 5.5 4.6 5.5 10s-2.5 10-5.5 10S7 17.4 7 12 9.5 2 12.5 2m0-1C8.9 1 6 5.9 6 12s2.9 11 6.5 11S19 18.1 19 12 16.1 1 12.5 1z" fill="#000000"/><path d="M12.5 1.5v8m-6 0h12" fill="none" stroke="#000000" stroke-miterlimit="10"/><path clip-path="url(#clip_frame18_myfill)" d="M.5 1.5h9.781v8H.5z" fill="#000000" stroke="#000000" stroke-miterlimit="10"/></g><g transform="translate(456)"><defs><clipPath id="clip_frame19_myfill"><path d="M12.5 1.5c-4 2-5 4-5 4l-1 4h6v-8z"/></clipPath></defs><path d="M12.5 2c3 0 5.5 4.6 5.5 10s-2.5 10-5.5 10S7 17.4 7 12 9.5 2 12.5 2m0-1C8.9 1 6 5.9 6 12s2.9 11 6.5 11S19 18.1 19 12 16.1 1 12.5 1z" fill="#000000"/><path d="M12.5 1.5v8m-6 0h12" fill="none" stroke="#000000" stroke-miterlimit="10"/><path clip-path="url(#clip_frame19_myfill)" d="M.5 1.5h10.123v8H.5z" fill="#000000" stroke="#000000" stroke-miterlimit="10"/></g><g transform="translate(480)"><defs><clipPath id="clip_frame20_myfill"><path d="M12.5 1.5c-4 2-5 4-5 4l-1 4h6v-8z"/></clipPath></defs><path d="M12.5 2c3 0 5.5 4.6 5.5 10s-2.5 10-5.5 10S7 17.4 7 12 9.5 2 12.5 2m0-1C8.9 1 6 5.9 6 12s2.9 11 6.5 11S19 18.1 19 12 16.1 1 12.5 1z" fill="#000000"/><path d="M12.5 1.5v8m-6 0h12" fill="none" stroke="#000000" stroke-miterlimit="10"/><path clip-path="url(#clip_frame20_myfill)" d="M.5 1.5h10.476v8H.5z" fill="#000000" stroke="#000000" stroke-miterlimit="10"/></g><g transform="translate(504)"><defs><clipPath id="clip_frame21_myfill"><path d="M12.5 1.5c-4 2-5 4-5 4l-1 4h6v-8z"/></clipPath></defs><path d="M12.5 2c3 0 5.5 4.6 5.5 10s-2.5 10-5.5 10S7 17.4 7 12 9.5 2 12.5 2m0-1C8.9 1 6 5.9 6 12s2.9 11 6.5 11S19 18.1 19 12 16.1 1 12.5 1z" fill="#000000"/><path d="M12.5 1.5v8m-6 0h12" fill="none" stroke="#000000" stroke-miterlimit="10"/><path clip-path="url(#clip_frame21_myfill)" d="M.5 1.5h10.839v8H.5z" fill="#000000" stroke="#000000" stroke-miterlimit="10"/></g><g transform="translate(528)"><defs><clipPath id="clip_frame22_myfill"><path d="M12.5 1.5c-4 2-5 4-5 4l-1 4h6v-8z"/></clipPath></defs><path d="M12.5 2c3 0 5.5 4.6 5.5 10s-2.5 10-5.5 10S7 17.4 7 12 9.5 2 12.5 2m0-1C8.9 1 6 5.9 6 12s2.9 11 6.5 11S19 18.1 19 12 16.1 1 12.5 1z" fill="#000000"/><path d="M12.5 1.5v8m-6 0h12" fill="none" stroke="#000000" stroke-miterlimit="10"/><path clip-path="url(#clip_frame22_myfill)" d="M.5 1.5h11.213v8H.5z" fill="#000000" stroke="#000000" stroke-miterlimit="10"/></g><g transform="translate(552)"><defs><clipPath id="clip_frame23_myfill"><path d="M12.5 1.5c-4 2-5 4-5 4l-1 4h6v-8z"/></clipPath></defs><path d="M12.5 2c3 0 5.5 4.6 5.5 10s-2.5 10-5.5 10S7 17.4 7 12 9.5 2 12.5 2m0-1C8.9 1 6 5.9 6 12s2.9 11 6.5 11S19 18.1 19 12 16.1 1 12.5 1z" fill="#000000"/><path d="M12.5 1.5v8m-6 0h12" fill="none" stroke="#000000" stroke-miterlimit="10"/><path clip-path="url(#clip_frame23_myfill)" d="M.5 1.5h11.599v8H.5z" fill="#000000" stroke="#000000" stroke-miterlimit="10"/></g><g transform="translate(576)"><defs><clipPath id="clip_frame24_myfill"><path d="M12.5 1.5c-4 2-5 4-5 4l-1 4h6v-8z"/></clipPath></defs><path d="M12.5 2c3 0 5.5 4.6 5.5 10s-2.5 10-5.5 10S7 17.4 7 12 9.5 2 12.5 2m0-1C8.9 1 6 5.9 6 12s2.9 11 6.5 11S19 18.1 19 12 16.1 1 12.5 1z" fill="#000000"/><path d="M12.5 1.5v8m-6 0h12" fill="none" stroke="#000000" stroke-miterlimit="10"/><path clip-path="url(#clip_frame24_myfill)" d="M.5 1.5h12v8H.5z" fill="#000000" stroke="#000000" stroke-miterlimit="10"/></g><g transform="translate(600)"><defs><clipPath id="clip_frame25_myfill"><path d="M12.5 1.5c-4 2-5 4-5 4l-1 4h6v-8z"/></clipPath></defs><path d="M12.5 2c3 0 5.5 4.6 5.5 10s-2.5 10-5.5 10S7 17.4 7 12 9.5 2 12.5 2m0-1C8.9 1 6 5.9 6 12s2.9 11 6.5 11S19 18.1 19 12 16.1 1 12.5 1z" fill="#000000"/><path d="M12.5 1.5v8m-6 0h12" fill="none" stroke="#000000" stroke-miterlimit="10"/><path clip-path="url(#clip_frame25_myfill)" d="M.5 1.5h12v8H.5z" fill="#000000" stroke="#000000" stroke-miterlimit="10"/></g><g transform="translate(624)"><defs><clipPath id="clip_frame26_myfill"><path d="M12.5 1.5c-4 2-5 4-5 4l-1 4h6v-8z"/></clipPath></defs><path d="M12.5 2c3 0 5.5 4.6 5.5 10s-2.5 10-5.5 10S7 17.4 7 12 9.5 2 12.5 2m0-1C8.9 1 6 5.9 6 12s2.9 11 6.5 11S19 18.1 19 12 16.1 1 12.5 1z" fill="#000000"/><path d="M12.5 1.5v8m-6 0h12" fill="none" stroke="#000000" stroke-miterlimit="10"/><path clip-path="url(#clip_frame26_myfill)" d="M.5 1.5h12v8H.5z" fill="#000000" stroke="#000000" stroke-miterlimit="10"/></g><g transform="translate(648)"><defs><clipPath id="clip_frame27_myfill"><path d="M12.5 1.5c-4 2-5 4-5 4l-1 4h6v-8z"/></clipPath></defs><path d="M12.5 2c3 0 5.5 4.6 5.5 10s-2.5 10-5.5 10S7 17.4 7 12 9.5 2 12.5 2m0-1C8.9 1 6 5.9 6 12s2.9 11 6.5 11S19 18.1 19 12 16.1 1 12.5 1z" fill="#000000"/><path d="M12.5 1.5v8m-6 0h12" fill="none" stroke="#000000" stroke-miterlimit="10"/><path clip-path="url(#clip_frame27_myfill)" d="M.5 1.5h12v8H.5z" fill="#000000" stroke="#000000" stroke-miterlimit="10"/></g><g transform="translate(672)"><defs><clipPath id="clip_frame28_myfill"><path d="M12.5 1.5c-4 2-5 4-5 4l-1 4h6v-8z"/></clipPath></defs><path d="M12.5 2c3 0 5.5 4.6 5.5 10s-2.5 10-5.5 10S7 17.4 7 12 9.5 2 12.5 2m0-1C8.9 1 6 5.9 6 12s2.9 11 6.5 11S19 18.1 19 12 16.1 1 12.5 1z" fill="#000000"/><path d="M12.5 1.5v8m-6 0h12" fill="none" stroke="#000000" stroke-miterlimit="10"/><path clip-path="url(#clip_frame28_myfill)" d="M.5 1.5h12v8H.5z" fill="#000000" stroke="#000000" stroke-miterlimit="10"/></g><g transform="translate(696)"><defs><clipPath id="clip_frame29_myfill"><path d="M12.5 1.5c-4 2-5 4-5 4l-1 4h6v-8z"/></clipPath></defs><path d="M12.5 2c3 0 5.5 4.6 5.5 10s-2.5 10-5.5 10S7 17.4 7 12 9.5 2 12.5 2m0-1C8.9 1 6 5.9 6 12s2.9 11 6.5 11S19 18.1 19 12 16.1 1 12.5 1z" fill="#000000"/><path d="M12.5 1.5v8m-6 0h12" fill="none" stroke="#000000" stroke-miterlimit="10"/><path clip-path="url(#clip_frame29_myfill)" d="M.5 1.5h12v8H.5z" fill="#000000" stroke="#000000" stroke-miterlimit="10"/></g><g transform="translate(720)"><defs><clipPath id="clip_frame30_myfill"><path d="M12.5 1.5c-4 2-5 4-5 4l-1 4h6v-8z"/></clipPath></defs><path d="M12.5 2c3 0 5.5 4.6 5.5 10s-2.5 10-5.5 10S7 17.4 7 12 9.5 2 12.5 2m0-1C8.9 1 6 5.9 6 12s2.9 11 6.5 11S19 18.1 19 12 16.1 1 12.5 1z" fill="#000000"/><path d="M12.5 1.5v8m-6 0h12" fill="none" stroke="#000000" stroke-miterlimit="10"/><path clip-path="url(#clip_frame30_myfill)" d="M.5 1.5h12v8H.5z" fill="#000000" stroke="#000000" stroke-miterlimit="10"/></g><g transform="translate(744)"><defs><clipPath id="clip_frame31_myfill"><path d="M12.5 1.5c-4 2-5 4-5 4l-1 4h6v-8z"/></clipPath></defs><path d="M12.5 2c3 0 5.5 4.6 5.5 10s-2.5 10-5.5 10S7 17.4 7 12 9.5 2 12.5 2m0-1C8.9 1 6 5.9 6 12s2.9 11 6.5 11S19 18.1 19 12 16.1 1 12.5 1z" fill="#000000"/><path d="M12.5 1.5v8m-6 0h12" fill="none" stroke="#000000" stroke-miterlimit="10"/><path clip-path="url(#clip_frame31_myfill)" d="M.5 1.5h12v8H.5z" fill="#000000" stroke="#000000" stroke-miterlimit="10"/></g><g transform="translate(768)"><defs><clipPath id="clip_frame32_myfill"><path d="M12.5 1.5c-4 2-5 4-5 4l-1 4h6v-8z"/></clipPath></defs><path d="M12.5 2c3 0 5.5 4.6 5.5 10s-2.5 10-5.5 10S7 17.4 7 12 9.5 2 12.5 2m0-1C8.9 1 6 5.9 6 12s2.9 11 6.5 11S19 18.1 19 12 16.1 1 12.5 1z" fill="#000000"/><path d="M12.5 1.5v8m-6 0h12" fill="none" stroke="#000000" stroke-miterlimit="10"/><path clip-path="url(#clip_frame32_myfill)" d="M.5 1.5h12v8H.5z" fill="#000000" stroke="#000000" stroke-miterlimit="10"/></g><g transform="translate(792)"><defs><clipPath id="clip_frame33_myfill"><path d="M12.5 1.5c-4 2-5 4-5 4l-1 4h6v-8z"/></clipPath></defs><path d="M12.5 2c3 0 5.5 4.6 5.5 10s-2.5 10-5.5 10S7 17.4 7 12 9.5 2 12.5 2m0-1C8.9 1 6 5.9 6 12s2.9 11 6.5 11S19 18.1 19 12 16.1 1 12.5 1z" fill="#000000"/><path d="M12.5 1.5v8m-6 0h12" fill="none" stroke="#000000" stroke-miterlimit="10"/><path clip-path="url(#clip_frame33_myfill)" d="M.5 1.5h12v8H.5z" fill="#000000" stroke="#000000" stroke-miterlimit="10"/></g><g transform="translate(816)"><defs><clipPath id="clip_frame34_myfill"><path d="M12.5 1.5c-4 2-5 4-5 4l-1 4h6v-8z"/></clipPath></defs><path d="M12.5 2c3 0 5.5 4.6 5.5 10s-2.5 10-5.5 10S7 17.4 7 12 9.5 2 12.5 2m0-1C8.9 1 6 5.9 6 12s2.9 11 6.5 11S19 18.1 19 12 16.1 1 12.5 1z" fill="#000000"/><path d="M12.5 1.5v8m-6 0h12" fill="none" stroke="#000000" stroke-miterlimit="10"/><path clip-path="url(#clip_frame34_myfill)" d="M.5 1.5h12v8H.5z" fill="#000000" stroke="#000000" stroke-miterlimit="10"/></g><g transform="translate(840)"><defs><clipPath id="clip_frame35_myfill"><path d="M12.5 1.5c-4 2-5 4-5 4l-1 4h6v-8z"/></clipPath></defs><path d="M12.5 2c3 0 5.5 4.6 5.5 10s-2.5 10-5.5 10S7 17.4 7 12 9.5 2 12.5 2m0-1C8.9 1 6 5.9 6 12s2.9 11 6.5 11S19 18.1 19 12 16.1 1 12.5 1z" fill="#000000"/><path d="M12.5 1.5v8m-6 0h12" fill="none" stroke="#000000" stroke-miterlimit="10"/><path clip-path="url(#clip_frame35_myfill)" d="M.5 1.5h12v8H.5z" fill="#000000" stroke="#000000" stroke-miterlimit="10"/></g><g transform="translate(864)"><defs><clipPath id="clip_frame36_myfill"><path d="M12.5 1.5c-4 2-5 4-5 4l-1 4h6v-8z"/></clipPath></defs><path d="M12.5 2c3 0 5.5 4.6 5.5 10s-2.5 10-5.5 10S7 17.4 7 12 9.5 2 12.5 2m0-1C8.9 1 6 5.9 6 12s2.9 11 6.5 11S19 18.1 19 12 16.1 1 12.5 1z" fill="#000000"/><path d="M12.5 1.5v8m-6 0h12" fill="none" stroke="#000000" stroke-miterlimit="10"/><path clip-path="url(#clip_frame36_myfill)" d="M.5 1.5h12v8H.5z" fill="#000000" stroke="#000000" stroke-miterlimit="10"/></g><g transform="translate(888)"><defs><clipPath id="clip_frame37_myfill"><path d="M12.5 1.5c-4 2-5 4-5 4l-1 4h6v-8z"/></clipPath></defs><path d="M12.5 2c3 0 5.5 4.6 5.5 10s-2.5 10-5.5 10S7 17.4 7 12 9.5 2 12.5 2m0-1C8.9 1 6 5.9 6 12s2.9 11 6.5 11S19 18.1 19 12 16.1 1 12.5 1z" fill="#000000"/><path d="M12.5 1.5v8m-6 0h12" fill="none" stroke="#000000" stroke-miterlimit="10"/><path clip-path="url(#clip_frame37_myfill)" d="M.5 1.5h12v8H.5z" fill="#000000" stroke="#000000" stroke-miterlimit="10"/></g><g transform="translate(912)"><defs><clipPath id="clip_frame38_myfill"><path d="M12.5 1.5c-4 2-5 4-5 4l-1 4h6v-8z"/></clipPath></defs><path d="M12.5 2c3 0 5.5 4.6 5.5 10s-2.5 10-5.5 10S7 17.4 7 12 9.5 2 12.5 2m0-1C8.9 1 6 5.9 6 12s2.9 11 6.5 11S19 18.1 19 12 16.1 1 12.5 1z" fill="#000000"/><path d="M12.5 1.5v8m-6 0h12" fill="none" stroke="#000000" stroke-miterlimit="10"/><path clip-path="url(#clip_frame38_myfill)" d="M.5 1.5h12v8H.5z" fill="#000000" stroke="#000000" stroke-miterlimit="10"/></g><g transform="translate(936)"><defs><clipPath id="clip_frame39_myfill"><path d="M12.5 1.5c-4 2-5 4-5 4l-1 4h6v-8z"/></clipPath></defs><path d="M12.5 2c3 0 5.5 4.6 5.5 10s-2.5 10-5.5 10S7 17.4 7 12 9.5 2 12.5 2m0-1C8.9 1 6 5.9 6 12s2.9 11 6.5 11S19 18.1 19 12 16.1 1 12.5 1z" fill="#000000"/><path d="M12.5 1.5v8m-6 0h12" fill="none" stroke="#000000" stroke-miterlimit="10"/><path clip-path="url(#clip_frame39_myfill)" d="M.5 1.5h12v8H.5z" fill="#000000" stroke="#000000" stroke-miterlimit="10"/></g><g transform="translate(960)"><defs><clipPath id="clip_frame40_myfill"><path d="M12.5 1.5c-4 2-5 4-5 4l-1 4h6v-8z"/></clipPath></defs><path d="M12.5 2c3 0 5.5 4.6 5.5 10s-2.5 10-5.5 10S7 17.4 7 12 9.5 2 12.5 2m0-1C8.9 1 6 5.9 6 12s2.9 11 6.5 11S19 18.1 19 12 16.1 1 12.5 1z" fill="#000000"/><path d="M12.5 1.5v8m-6 0h12" fill="none" stroke="#000000" stroke-miterlimit="10"/><path clip-path="url(#clip_frame40_myfill)" d="M.5 1.5h12v8H.5z" fill="#000000" stroke="#000000" stroke-miterlimit="10"/></g><g transform="translate(984)"><defs><clipPath id="clip_frame41_myfill"><path d="M12.5 1.5c-4 2-5 4-5 4l-1 4h6v-8z"/></clipPath></defs><path d="M12.5 2c3 0 5.5 4.6 5.5 10s-2.5 10-5.5 10S7 17.4 7 12 9.5 2 12.5 2m0-1C8.9 1 6 5.9 6 12s2.9 11 6.5 11S19 18.1 19 12 16.1 1 12.5 1z" fill="#000000"/><path d="M12.5 1.5v8m-6 0h12" fill="none" stroke="#000000" stroke-miterlimit="10"/><path clip-path="url(#clip_frame41_myfill)" d="M.5 1.5h12v8H.5z" fill="#000000" stroke="#000000" stroke-miterlimit="10"/></g><g transform="translate(1008)"><defs><clipPath id="clip_frame42_myfill"><path d="M12.5 1.5c-4 2-5 4-5 4l-1 4h6v-8z"/></clipPath></defs><path d="M12.5 2c3 0 5.5 4.6 5.5 10s-2.5 10-5.5 10S7 17.4 7 12 9.5 2 12.5 2m0-1C8.9 1 6 5.9 6 12s2.9 11 6.5 11S19 18.1 19 12 16.1 1 12.5 1z" fill="#000000"/><path d="M12.5 1.5v8m-6 0h12" fill="none" stroke="#000000" stroke-miterlimit="10"/><path clip-path="url(#clip_frame42_myfill)" d="M.5 1.5h12v8H.5z" fill="#000000" stroke="#000000" stroke-miterlimit="10"/></g><g transform="translate(1032)"><defs><clipPath id="clip_frame43_myfill"><path d="M12.5 1.5c-4 2-5 4-5 4l-1 4h6v-8z"/></clipPath></defs><path d="M12.5 2c3 0 5.5 4.6 5.5 10s-2.5 10-5.5 10S7 17.4 7 12 9.5 2 12.5 2m0-1C8.9 1 6 5.9 6 12s2.9 11 6.5 11S19 18.1 19 12 16.1 1 12.5 1z" fill="#000000"/><path d="M12.5 1.5v8m-6 0h12" fill="none" stroke="#000000" stroke-miterlimit="10"/><path clip-path="url(#clip_frame43_myfill)" d="M.5 1.5h12v8H.5z" fill="#000000" stroke="#000000" stroke-miterlimit="10"/></g><g transform="translate(1056)"><defs><clipPath id="clip_frame44_myfill"><path d="M12.5 1.5c-4 2-5 4-5 4l-1 4h6v-8z"/></clipPath></defs><path d="M12.5 2c3 0 5.5 4.6 5.5 10s-2.5 10-5.5 10S7 17.4 7 12 9.5 2 12.5 2m0-1C8.9 1 6 5.9 6 12s2.9 11 6.5 11S19 18.1 19 12 16.1 1 12.5 1z" fill="#000000"/><path d="M12.5 1.5v8m-6 0h12" fill="none" stroke="#000000" stroke-miterlimit="10"/><path clip-path="url(#clip_frame44_myfill)" d="M.5 1.5h12v8H.5z" fill="#000000" stroke="#000000" stroke-miterlimit="10"/></g><g transform="translate(1080)"><defs><clipPath id="clip_frame45_myfill"><path d="M12.5 1.5c-4 2-5 4-5 4l-1 4h6v-8z"/></clipPath></defs><path d="M12.5 2c3 0 5.5 4.6 5.5 10s-2.5 10-5.5 10S7 17.4 7 12 9.5 2 12.5 2m0-1C8.9 1 6 5.9 6 12s2.9 11 6.5 11S19 18.1 19 12 16.1 1 12.5 1z" fill="#000000"/><path d="M12.5 1.5v8m-6 0h12" fill="none" stroke="#000000" stroke-miterlimit="10"/><path clip-path="url(#clip_frame45_myfill)" d="M.5 1.5h12v8H.5z" fill="#000000" stroke="#000000" stroke-miterlimit="10"/></g><g transform="translate(1104)"><defs><clipPath id="clip_frame46_myfill"><path d="M12.5 1.5c-4 2-5 4-5 4l-1 4h6v-8z"/></clipPath></defs><path d="M12.5 2c3 0 5.5 4.6 5.5 10s-2.5 10-5.5 10S7 17.4 7 12 9.5 2 12.5 2m0-1C8.9 1 6 5.9 6 12s2.9 11 6.5 11S19 18.1 19 12 16.1 1 12.5 1z" fill="#000000"/><path d="M12.5 1.5v8m-6 0h12" fill="none" stroke="#000000" stroke-miterlimit="10"/><path clip-path="url(#clip_frame46_myfill)" d="M.5 1.5h12v8H.5z" fill="#000000" stroke="#000000" stroke-miterlimit="10"/></g><g transform="translate(1128)"><defs><clipPath id="clip_frame47_myfill"><path d="M12.5 1.5c-4 2-5 4-5 4l-1 4h6v-8z"/></clipPath></defs><path d="M12.5 2c3 0 5.5 4.6 5.5 10s-2.5 10-5.5 10S7 17.4 7 12 9.5 2 12.5 2m0-1C8.9 1 6 5.9 6 12s2.9 11 6.5 11S19 18.1 19 12 16.1 1 12.5 1z" fill="#000000"/><path d="M12.5 1.5v8m-6 0h12" fill="none" stroke="#000000" stroke-miterlimit="10"/><path clip-path="url(#clip_frame47_myfill)" d="M.5 1.5h12v8H.5z" fill="#000000" stroke="#000000" stroke-miterlimit="10"/></g><g transform="translate(1152)"><defs><clipPath id="clip_frame48_myfill"><path d="M12.5 1.5c-4 2-5 4-5 4l-1 4h6v-8z"/></clipPath></defs><path d="M12.5 2c3 0 5.5 4.6 5.5 10s-2.5 10-5.5 10S7 17.4 7 12 9.5 2 12.5 2m0-1C8.9 1 6 5.9 6 12s2.9 11 6.5 11S19 18.1 19 12 16.1 1 12.5 1z" fill="#000000"/><path d="M12.5 1.5v8m-6 0h12" fill="none" stroke="#000000" stroke-miterlimit="10"/><path clip-path="url(#clip_frame48_myfill)" d="M.5 1.5h12v8H.5z" fill="#000000" stroke="#000000" stroke-miterlimit="10"/></g><g transform="translate(1176)"><defs><clipPath id="clip_frame49_myfill"><path d="M12.5 1.5c-4 2-5 4-5 4l-1 4h6v-8z"/></clipPath></defs><path d="M12.5 2c3 0 5.5 4.6 5.5 10s-2.5 10-5.5 10S7 17.4 7 12 9.5 2 12.5 2m0-1C8.9 1 6 5.9 6 12s2.9 11 6.5 11S19 18.1 19 12 16.1 1 12.5 1z" fill="#000000"/><path d="M12.5 1.5v8m-6 0h12" fill="none" stroke="#000000" stroke-miterlimit="10"/><path clip-path="url(#clip_frame49_myfill)" d="M.5 1.5h12v8H.5z" fill="#000000" stroke="#000000" stroke-miterlimit="10"/></g><g transform="translate(1200)"><defs><clipPath id="clip_frame50_myfill"><path d="M12.5 1.5c-4 2-5 4-5 4l-1 4h6v-8z"/></clipPath></defs><path d="M12.5 2c3 0 5.5 4.6 5.5 10s-2.5 10-5.5 10S7 17.4 7 12 9.5 2 12.5 2m0-1C8.9 1 6 5.9 6 12s2.9 11 6.5 11S19 18.1 19 12 16.1 1 12.5 1z" fill="#000000"/><path d="M12.5 1.5v8m-6 0h12" fill="none" stroke="#000000" stroke-miterlimit="10"/><path clip-path="url(#clip_frame50_myfill)" d="M.5 1.5h12v8H.5z" fill="#000000" stroke="#000000" stroke-miterlimit="10"/></g><g transform="translate(1224)"><defs><clipPath id="clip_frame51_myfill"><path d="M12.5 1.5c-4 2-5 4-5 4l-1 4h6v-8z"/></clipPath></defs><path d="M12.5 2c3 0 5.5 4.6 5.5 10s-2.5 10-5.5 10S7 17.4 7 12 9.5 2 12.5 2m0-1C8.9 1 6 5.9 6 12s2.9 11 6.5 11S19 18.1 19 12 16.1 1 12.5 1z" fill="#000000"/><path d="M12.5 1.5v8m-6 0h12" fill="none" stroke="#000000" stroke-miterlimit="10"/><path clip-path="url(#clip_frame51_myfill)" d="M.5 1.5h12v8H.5z" fill="#000000" stroke="#000000" stroke-miterlimit="10"/></g><g transform="translate(1248)"><defs><clipPath id="clip_frame52_myfill"><path d="M12.5 1.5c-4 2-5 4-5 4l-1 4h6v-8z"/></clipPath></defs><path d="M12.5 2c3 0 5.5 4.6 5.5 10s-2.5 10-5.5 10S7 17.4 7 12 9.5 2 12.5 2m0-1C8.9 1 6 5.9 6 12s2.9 11 6.5 11S19 18.1 19 12 16.1 1 12.5 1z" fill="#000000"/><path d="M12.5 1.5v8m-6 0h12" fill="none" stroke="#000000" stroke-miterlimit="10"/><path clip-path="url(#clip_frame52_myfill)" d="M.5 1.5h12v8H.5z" fill="#000000" stroke="#000000" stroke-miterlimit="10"/></g><g transform="translate(1272)"><defs><clipPath id="clip_frame53_myfill"><path d="M12.5 1.5c-4 2-5 4-5 4l-1 4h6v-8z"/></clipPath></defs><path d="M12.5 2c3 0 5.5 4.6 5.5 10s-2.5 10-5.5 10S7 17.4 7 12 9.5 2 12.5 2m0-1C8.9 1 6 5.9 6 12s2.9 11 6.5 11S19 18.1 19 12 16.1 1 12.5 1z" fill="#000000"/><path d="M12.5 1.5v8m-6 0h12" fill="none" stroke="#000000" stroke-miterlimit="10"/><path clip-path="url(#clip_frame53_myfill)" d="M.5 1.5h12v8H.5z" fill="#000000" stroke="#000000" stroke-miterlimit="10"/></g><g transform="translate(1296)"><defs><clipPath id="clip_frame54_myfill"><path d="M12.5 1.5c-4 2-5 4-5 4l-1 4h6v-8z"/></clipPath></defs><path d="M12.5 2c3 0 5.5 4.6 5.5 10s-2.5 10-5.5 10S7 17.4 7 12 9.5 2 12.5 2m0-1C8.9 1 6 5.9 6 12s2.9 11 6.5 11S19 18.1 19 12 16.1 1 12.5 1z" fill="#000000"/><path d="M12.5 1.5v8m-6 0h12" fill="none" stroke="#000000" stroke-miterlimit="10"/><path clip-path="url(#clip_frame54_myfill)" d="M.5 1.5h12v8H.5z" fill="#000000" stroke="#000000" stroke-miterlimit="10"/></g><g transform="translate(1320)"><defs><clipPath id="clip_frame55_myfill"><path d="M12.5 1.5c-4 2-5 4-5 4l-1 4h6v-8z"/></clipPath></defs><path d="M12.5 2c3 0 5.5 4.6 5.5 10s-2.5 10-5.5 10S7 17.4 7 12 9.5 2 12.5 2m0-1C8.9 1 6 5.9 6 12s2.9 11 6.5 11S19 18.1 19 12 16.1 1 12.5 1z" fill="#000000"/><path d="M12.5 1.5v8m-6 0h12" fill="none" stroke="#000000" stroke-miterlimit="10"/><path clip-path="url(#clip_frame55_myfill)" d="M.5 1.5h12v8H.5z" fill="#000000" stroke="#000000" stroke-miterlimit="10"/></g><g transform="translate(1344)"><defs><clipPath id="clip_frame56_myfill"><path d="M12.5 1.5c-4 2-5 4-5 4l-1 4h6v-8z"/></clipPath></defs><path d="M12.5 2c3 0 5.5 4.6 5.5 10s-2.5 10-5.5 10S7 17.4 7 12 9.5 2 12.5 2m0-1C8.9 1 6 5.9 6 12s2.9 11 6.5 11S19 18.1 19 12 16.1 1 12.5 1z" fill="#000000"/><path d="M12.5 1.5v8m-6 0h12" fill="none" stroke="#000000" stroke-miterlimit="10"/><path clip-path="url(#clip_frame56_myfill)" d="M.5 1.5h12v8H.5z" fill="#000000" stroke="#000000" stroke-miterlimit="10"/></g><g transform="translate(1368)"><defs><clipPath id="clip_frame57_myfill"><path d="M12.5 1.5c-4 2-5 4-5 4l-1 4h6v-8z"/></clipPath></defs><path d="M12.5 2c3 0 5.5 4.6 5.5 10s-2.5 10-5.5 10S7 17.4 7 12 9.5 2 12.5 2m0-1C8.9 1 6 5.9 6 12s2.9 11 6.5 11S19 18.1 19 12 16.1 1 12.5 1z" fill="#000000"/><path d="M12.5 1.5v8m-6 0h12" fill="none" stroke="#000000" stroke-miterlimit="10"/><path clip-path="url(#clip_frame57_myfill)" d="M.5 1.5h12v8H.5z" fill="#000000" stroke="#000000" stroke-miterlimit="10"/></g><g transform="translate(1392)"><defs><clipPath id="clip_frame58_myfill"><path d="M12.5 1.5c-4 2-5 4-5 4l-1 4h6v-8z"/></clipPath></defs><path d="M12.5 2c3 0 5.5 4.6 5.5 10s-2.5 10-5.5 10S7 17.4 7 12 9.5 2 12.5 2m0-1C8.9 1 6 5.9 6 12s2.9 11 6.5 11S19 18.1 19 12 16.1 1 12.5 1z" fill="#000000"/><path d="M12.5 1.5v8m-6 0h12" fill="none" stroke="#000000" stroke-miterlimit="10"/><path clip-path="url(#clip_frame58_myfill)" d="M.5 1.5h12v8H.5z" fill="#000000" stroke="#000000" stroke-miterlimit="10"/></g><g transform="translate(1416)"><defs><clipPath id="clip_frame59_myfill"><path d="M12.5 1.5c-4 2-5 4-5 4l-1 4h6v-8z"/></clipPath></defs><path d="M12.5 2c3 0 5.5 4.6 5.5 10s-2.5 10-5.5 10S7 17.4 7 12 9.5 2 12.5 2m0-1C8.9 1 6 5.9 6 12s2.9 11 6.5 11S19 18.1 19 12 16.1 1 12.5 1z" fill="#000000"/><path d="M12.5 1.5v8m-6 0h12" fill="none" stroke="#000000" stroke-miterlimit="10"/><path clip-path="url(#clip_frame59_myfill)" d="M.5 1.5h12v8H.5z" fill="#000000" stroke="#000000" stroke-miterlimit="10"/></g><g transform="translate(1440)"><defs><clipPath id="clip_frame60_myfill"><path d="M12.5 1.5c-4 2-5 4-5 4l-1 4h6v-8z"/></clipPath></defs><path d="M12.5 2c3 0 5.5 4.6 5.5 10s-2.5 10-5.5 10S7 17.4 7 12 9.5 2 12.5 2m0-1C8.9 1 6 5.9 6 12s2.9 11 6.5 11S19 18.1 19 12 16.1 1 12.5 1z" fill="#000000"/><path d="M12.5 1.5v8m-6 0h12" fill="none" stroke="#000000" stroke-miterlimit="10"/><path clip-path="url(#clip_frame60_myfill)" d="M.5 1.5h12v8H.5z" fill="#000000" stroke="#000000" stroke-miterlimit="10"/></g></svg>